<mxfile host="" modified="2022-02-15T22:29:58.116Z" agent="5.0 (Windows NT 10.0; WOW64) AppleWebKit/537.36 (KHTML, like Gecko) Code/1.45.0 Chrome/78.0.3904.130 Electron/7.2.4 Safari/537.36" version="13.1.3" etag="qfu8EFRRBzm0pB6D0QIH">
    <diagram id="M9n8cKH0o3rjsrAvARH8" name="Page-1">
        <mxGraphModel dx="2567" dy="565" grid="0" gridSize="10" guides="1" tooltips="1" connect="1" arrows="1" fold="1" page="0" pageScale="1" pageWidth="827" pageHeight="1169" background="none" math="0" shadow="0">
            <root>
                <mxCell id="0"/>
                <mxCell id="1" parent="0"/>
                <mxCell id="60" style="edgeStyle=none;html=1;exitX=0.5;exitY=1;exitDx=0;exitDy=0;entryX=0.5;entryY=0;entryDx=0;entryDy=0;" parent="1" source="2" target="45" edge="1">
                    <mxGeometry relative="1" as="geometry"/>
                </mxCell>
                <mxCell id="2" value="Training Nexus" style="rounded=0;whiteSpace=wrap;html=1;fillColor=#f8cecc;strokeColor=#b85450;gradientColor=#ea6b66;" parent="1" vertex="1">
                    <mxGeometry x="-580" y="110" width="120" height="60" as="geometry"/>
                </mxCell>
                <mxCell id="5" value="" style="edgeStyle=none;html=1;" parent="1" source="3" target="4" edge="1">
                    <mxGeometry relative="1" as="geometry"/>
                </mxCell>
                <mxCell id="8" style="edgeStyle=none;html=1;exitX=0.5;exitY=1;exitDx=0;exitDy=0;entryX=0.5;entryY=0;entryDx=0;entryDy=0;" parent="1" source="3" target="7" edge="1">
                    <mxGeometry relative="1" as="geometry"/>
                </mxCell>
                <mxCell id="16" style="edgeStyle=none;html=1;exitX=0.5;exitY=1;exitDx=0;exitDy=0;entryX=0.5;entryY=0;entryDx=0;entryDy=0;" parent="1" source="3" target="11" edge="1">
                    <mxGeometry relative="1" as="geometry"/>
                </mxCell>
                <mxCell id="17" style="edgeStyle=none;html=1;exitX=1;exitY=1;exitDx=0;exitDy=0;entryX=0;entryY=0.5;entryDx=0;entryDy=0;" parent="1" source="3" target="15" edge="1">
                    <mxGeometry relative="1" as="geometry"/>
                </mxCell>
                <mxCell id="3" value="Development" style="rounded=0;whiteSpace=wrap;html=1;fillColor=#008a00;fontColor=#ffffff;strokeColor=#005700;" parent="1" vertex="1">
                    <mxGeometry x="-1033" y="260" width="120" height="60" as="geometry"/>
                </mxCell>
                <mxCell id="4" value="web development" style="whiteSpace=wrap;html=1;rounded=0;fillColor=#1ba1e2;fontColor=#ffffff;strokeColor=#006EAF;" parent="1" vertex="1">
                    <mxGeometry x="-1290" y="327" width="120" height="60" as="geometry"/>
                </mxCell>
                <mxCell id="25" style="edgeStyle=none;html=1;exitX=0.5;exitY=1;exitDx=0;exitDy=0;entryX=0.553;entryY=0.019;entryDx=0;entryDy=0;entryPerimeter=0;" parent="1" source="7" target="20" edge="1">
                    <mxGeometry relative="1" as="geometry"/>
                </mxCell>
                <mxCell id="27" style="edgeStyle=none;html=1;exitX=0.5;exitY=1;exitDx=0;exitDy=0;entryX=0.5;entryY=0;entryDx=0;entryDy=0;" parent="1" source="7" target="26" edge="1">
                    <mxGeometry relative="1" as="geometry"/>
                </mxCell>
                <mxCell id="7" value="Data Science" style="rounded=0;whiteSpace=wrap;html=1;fillColor=#1ba1e2;fontColor=#ffffff;strokeColor=#006EAF;" parent="1" vertex="1">
                    <mxGeometry x="-1153" y="450" width="120" height="60" as="geometry"/>
                </mxCell>
                <mxCell id="31" style="edgeStyle=none;html=1;exitX=0.5;exitY=1;exitDx=0;exitDy=0;entryX=0.553;entryY=-0.022;entryDx=0;entryDy=0;entryPerimeter=0;" parent="1" source="11" target="29" edge="1">
                    <mxGeometry relative="1" as="geometry"/>
                </mxCell>
                <mxCell id="32" style="edgeStyle=none;html=1;exitX=0.5;exitY=1;exitDx=0;exitDy=0;entryX=0;entryY=0.5;entryDx=0;entryDy=0;" parent="1" source="11" target="30" edge="1">
                    <mxGeometry relative="1" as="geometry"/>
                </mxCell>
                <mxCell id="11" value="No code Development" style="rounded=0;whiteSpace=wrap;html=1;fillColor=#1ba1e2;fontColor=#ffffff;strokeColor=#006EAF;" parent="1" vertex="1">
                    <mxGeometry x="-873" y="430" width="120" height="60" as="geometry"/>
                </mxCell>
                <mxCell id="15" value="Software development" style="rounded=0;whiteSpace=wrap;html=1;fillColor=#1ba1e2;fontColor=#ffffff;strokeColor=#006EAF;" parent="1" vertex="1">
                    <mxGeometry x="-853" y="320" width="120" height="60" as="geometry"/>
                </mxCell>
                <mxCell id="20" value="Machine learning" style="rounded=0;whiteSpace=wrap;html=1;fillColor=#60a917;fontColor=#ffffff;strokeColor=#2D7600;" parent="1" vertex="1">
                    <mxGeometry x="-1333" y="560" width="120" height="60" as="geometry"/>
                </mxCell>
                <mxCell id="26" value="Artificial intellegence" style="rounded=0;whiteSpace=wrap;html=1;fillColor=#60a917;fontColor=#ffffff;strokeColor=#2D7600;" parent="1" vertex="1">
                    <mxGeometry x="-1073" y="590" width="120" height="60" as="geometry"/>
                </mxCell>
                <mxCell id="29" value="Wordpress" style="rounded=0;whiteSpace=wrap;html=1;fillColor=#60a917;fontColor=#ffffff;strokeColor=#2D7600;" parent="1" vertex="1">
                    <mxGeometry x="-893" y="550" width="120" height="60" as="geometry"/>
                </mxCell>
                <mxCell id="30" value="Wix" style="rounded=0;whiteSpace=wrap;html=1;fillColor=#60a917;fontColor=#ffffff;strokeColor=#2D7600;" parent="1" vertex="1">
                    <mxGeometry x="-733" y="500" width="120" height="60" as="geometry"/>
                </mxCell>
                <mxCell id="53" style="edgeStyle=none;html=1;exitX=0.5;exitY=1;exitDx=0;exitDy=0;entryX=0.5;entryY=0;entryDx=0;entryDy=0;" parent="1" source="45" target="47" edge="1">
                    <mxGeometry relative="1" as="geometry"/>
                </mxCell>
                <mxCell id="54" style="edgeStyle=none;html=1;exitX=0.5;exitY=1;exitDx=0;exitDy=0;entryX=1;entryY=0.5;entryDx=0;entryDy=0;" parent="1" source="45" target="46" edge="1">
                    <mxGeometry relative="1" as="geometry"/>
                </mxCell>
                <mxCell id="55" style="edgeStyle=none;html=1;exitX=0.5;exitY=1;exitDx=0;exitDy=0;entryX=0;entryY=0.5;entryDx=0;entryDy=0;" parent="1" source="45" target="50" edge="1">
                    <mxGeometry relative="1" as="geometry"/>
                </mxCell>
                <mxCell id="56" style="edgeStyle=none;html=1;exitX=0.5;exitY=1;exitDx=0;exitDy=0;entryX=0.5;entryY=0;entryDx=0;entryDy=0;" parent="1" source="45" target="48" edge="1">
                    <mxGeometry relative="1" as="geometry"/>
                </mxCell>
                <mxCell id="59" style="edgeStyle=none;html=1;exitX=0.5;exitY=1;exitDx=0;exitDy=0;entryX=0.5;entryY=0;entryDx=0;entryDy=0;" parent="1" source="45" target="49" edge="1">
                    <mxGeometry relative="1" as="geometry"/>
                </mxCell>
                <mxCell id="45" value="Design" style="rounded=0;whiteSpace=wrap;html=1;fillColor=#008a00;fontColor=#ffffff;strokeColor=#005700;" parent="1" vertex="1">
                    <mxGeometry x="-180" y="300" width="120" height="60" as="geometry"/>
                </mxCell>
                <mxCell id="46" value="Web design" style="rounded=0;whiteSpace=wrap;html=1;fillColor=#1ba1e2;fontColor=#ffffff;strokeColor=#006EAF;" parent="1" vertex="1">
                    <mxGeometry x="-390" y="395" width="120" height="60" as="geometry"/>
                </mxCell>
                <mxCell id="47" value="Graphic design and illustration" style="rounded=0;whiteSpace=wrap;html=1;fillColor=#1ba1e2;fontColor=#ffffff;strokeColor=#006EAF;" parent="1" vertex="1">
                    <mxGeometry x="-300" y="475" width="120" height="60" as="geometry"/>
                </mxCell>
                <mxCell id="48" value="UX UI desing" style="rounded=0;whiteSpace=wrap;html=1;fillColor=#1ba1e2;fontColor=#ffffff;strokeColor=#006EAF;" parent="1" vertex="1">
                    <mxGeometry x="-160" y="475" width="120" height="60" as="geometry"/>
                </mxCell>
                <mxCell id="49" value="Game Design" style="rounded=0;whiteSpace=wrap;html=1;fillColor=#1ba1e2;fontColor=#ffffff;strokeColor=#006EAF;" parent="1" vertex="1">
                    <mxGeometry x="-10" y="475" width="120" height="60" as="geometry"/>
                </mxCell>
                <mxCell id="50" value="3D Animation" style="rounded=0;whiteSpace=wrap;html=1;fillColor=#1ba1e2;fontColor=#ffffff;strokeColor=#006EAF;" parent="1" vertex="1">
                    <mxGeometry x="70" y="365" width="120" height="60" as="geometry"/>
                </mxCell>
                <mxCell id="81" value="" style="endArrow=classic;html=1;entryX=0.5;entryY=0;entryDx=0;entryDy=0;" parent="1" target="3" edge="1">
                    <mxGeometry relative="1" as="geometry">
                        <mxPoint x="-510" y="166" as="sourcePoint"/>
                        <mxPoint x="-764" y="298" as="targetPoint"/>
                    </mxGeometry>
                </mxCell>
                <mxCell id="84" value="&lt;ol&gt;&lt;li&gt;title&lt;/li&gt;&lt;li&gt;id&lt;/li&gt;&lt;li&gt;url&lt;/li&gt;&lt;li&gt;creator&amp;nbsp;&lt;/li&gt;&lt;li&gt;img&lt;/li&gt;&lt;li&gt;price&lt;/li&gt;&lt;/ol&gt;" style="whiteSpace=wrap;html=1;aspect=fixed;align=left;verticalAlign=top;shadow=1;fontFamily=Helvetica;" vertex="1" parent="1">
                    <mxGeometry x="-1544" y="337" width="118" height="118" as="geometry"/>
                </mxCell>
                <mxCell id="98" style="edgeStyle=orthogonalEdgeStyle;rounded=0;orthogonalLoop=1;jettySize=auto;html=1;exitX=0.5;exitY=0;exitDx=0;exitDy=0;entryX=0;entryY=0.5;entryDx=0;entryDy=0;fontFamily=Helvetica;" edge="1" parent="1" source="85" target="4">
                    <mxGeometry relative="1" as="geometry"/>
                </mxCell>
                <mxCell id="85" value="objet A" style="swimlane;shadow=1;fontFamily=Helvetica;align=left;" vertex="1" parent="1">
                    <mxGeometry x="-1545" y="320" width="120" height="136" as="geometry"/>
                </mxCell>
                <mxCell id="88" value="&lt;ol&gt;&lt;li&gt;title&lt;/li&gt;&lt;li&gt;id&lt;/li&gt;&lt;li&gt;url&lt;/li&gt;&lt;li&gt;creator&amp;nbsp;&lt;/li&gt;&lt;li&gt;img&lt;/li&gt;&lt;li&gt;price&lt;/li&gt;&lt;/ol&gt;" style="whiteSpace=wrap;html=1;aspect=fixed;align=left;verticalAlign=top;shadow=1;fontFamily=Helvetica;" vertex="1" parent="1">
                    <mxGeometry x="-1331" y="674" width="118" height="118" as="geometry"/>
                </mxCell>
                <mxCell id="89" value="&lt;ol&gt;&lt;li&gt;title&lt;/li&gt;&lt;li&gt;id&lt;/li&gt;&lt;li&gt;url&lt;/li&gt;&lt;li&gt;creator&amp;nbsp;&lt;/li&gt;&lt;li&gt;img&lt;/li&gt;&lt;li&gt;price&lt;/li&gt;&lt;/ol&gt;" style="whiteSpace=wrap;html=1;aspect=fixed;align=left;verticalAlign=bottom;shadow=1;fontFamily=Helvetica;" vertex="1" parent="1">
                    <mxGeometry x="-1075" y="684" width="108" height="108" as="geometry"/>
                </mxCell>
                <mxCell id="90" value="&lt;ol&gt;&lt;li&gt;title&lt;/li&gt;&lt;li&gt;id&lt;/li&gt;&lt;li&gt;url&lt;/li&gt;&lt;li&gt;creator&amp;nbsp;&lt;/li&gt;&lt;li&gt;img&lt;/li&gt;&lt;li&gt;price&lt;/li&gt;&lt;/ol&gt;" style="whiteSpace=wrap;html=1;aspect=fixed;align=left;verticalAlign=top;shadow=1;fontFamily=Helvetica;" vertex="1" parent="1">
                    <mxGeometry x="-893" y="658" width="118" height="118" as="geometry"/>
                </mxCell>
                <mxCell id="91" value="&lt;ol&gt;&lt;li&gt;title&lt;/li&gt;&lt;li&gt;id&lt;/li&gt;&lt;li&gt;url&lt;/li&gt;&lt;li&gt;creator&amp;nbsp;&lt;/li&gt;&lt;li&gt;img&lt;/li&gt;&lt;li&gt;price&lt;/li&gt;&lt;/ol&gt;" style="whiteSpace=wrap;html=1;aspect=fixed;align=left;verticalAlign=top;shadow=1;fontFamily=Helvetica;" vertex="1" parent="1">
                    <mxGeometry x="-704.5" y="631" width="118" height="118" as="geometry"/>
                </mxCell>
                <mxCell id="92" value="&lt;ol&gt;&lt;li&gt;title&lt;/li&gt;&lt;li&gt;id&lt;/li&gt;&lt;li&gt;url&lt;/li&gt;&lt;li&gt;creator&amp;nbsp;&lt;/li&gt;&lt;li&gt;img&lt;/li&gt;&lt;li&gt;price&lt;/li&gt;&lt;/ol&gt;" style="whiteSpace=wrap;html=1;aspect=fixed;align=left;verticalAlign=top;shadow=1;fontFamily=Helvetica;" vertex="1" parent="1">
                    <mxGeometry x="-502" y="505" width="118" height="118" as="geometry"/>
                </mxCell>
                <mxCell id="93" value="&lt;ol&gt;&lt;li&gt;title&lt;/li&gt;&lt;li&gt;id&lt;/li&gt;&lt;li&gt;url&lt;/li&gt;&lt;li&gt;creator&amp;nbsp;&lt;/li&gt;&lt;li&gt;img&lt;/li&gt;&lt;li&gt;price&lt;/li&gt;&lt;/ol&gt;" style="whiteSpace=wrap;html=1;aspect=fixed;align=left;verticalAlign=top;shadow=1;fontFamily=Helvetica;" vertex="1" parent="1">
                    <mxGeometry x="297" y="475" width="118" height="118" as="geometry"/>
                </mxCell>
                <mxCell id="94" value="&lt;ol&gt;&lt;li&gt;title&lt;/li&gt;&lt;li&gt;id&lt;/li&gt;&lt;li&gt;url&lt;/li&gt;&lt;li&gt;creator&amp;nbsp;&lt;/li&gt;&lt;li&gt;img&lt;/li&gt;&lt;li&gt;price&lt;/li&gt;&lt;/ol&gt;" style="whiteSpace=wrap;html=1;aspect=fixed;align=left;verticalAlign=top;shadow=1;fontFamily=Helvetica;" vertex="1" parent="1">
                    <mxGeometry x="65" y="627" width="118" height="118" as="geometry"/>
                </mxCell>
                <mxCell id="95" value="&lt;ol&gt;&lt;li&gt;title&lt;/li&gt;&lt;li&gt;id&lt;/li&gt;&lt;li&gt;url&lt;/li&gt;&lt;li&gt;creator&amp;nbsp;&lt;/li&gt;&lt;li&gt;img&lt;/li&gt;&lt;li&gt;price&lt;/li&gt;&lt;/ol&gt;" style="whiteSpace=wrap;html=1;aspect=fixed;align=left;verticalAlign=top;shadow=1;fontFamily=Helvetica;" vertex="1" parent="1">
                    <mxGeometry x="-132" y="625" width="118" height="118" as="geometry"/>
                </mxCell>
                <mxCell id="96" value="&lt;ol&gt;&lt;li&gt;title&lt;/li&gt;&lt;li&gt;id&lt;/li&gt;&lt;li&gt;url&lt;/li&gt;&lt;li&gt;creator&amp;nbsp;&lt;/li&gt;&lt;li&gt;img&lt;/li&gt;&lt;li&gt;price&lt;/li&gt;&lt;/ol&gt;" style="whiteSpace=wrap;html=1;aspect=fixed;align=left;verticalAlign=top;shadow=1;fontFamily=Helvetica;" vertex="1" parent="1">
                    <mxGeometry x="-313" y="627" width="118" height="118" as="geometry"/>
                </mxCell>
                <mxCell id="108" style="edgeStyle=orthogonalEdgeStyle;rounded=0;orthogonalLoop=1;jettySize=auto;html=1;entryX=0.5;entryY=1;entryDx=0;entryDy=0;fontFamily=Helvetica;" edge="1" parent="1" source="97" target="15">
                    <mxGeometry relative="1" as="geometry"/>
                </mxCell>
                <mxCell id="97" value="&lt;ol&gt;&lt;li&gt;title&lt;/li&gt;&lt;li&gt;id&lt;/li&gt;&lt;li&gt;url&lt;/li&gt;&lt;li&gt;creator&amp;nbsp;&lt;/li&gt;&lt;li&gt;img&lt;/li&gt;&lt;li&gt;price&lt;/li&gt;&lt;/ol&gt;" style="whiteSpace=wrap;html=1;aspect=fixed;align=left;verticalAlign=top;shadow=1;fontFamily=Helvetica;" vertex="1" parent="1">
                    <mxGeometry x="-666" y="331.5" width="119.5" height="119.5" as="geometry"/>
                </mxCell>
                <mxCell id="100" style="edgeStyle=orthogonalEdgeStyle;rounded=0;orthogonalLoop=1;jettySize=auto;html=1;fontFamily=Helvetica;" edge="1" parent="1" source="99" target="20">
                    <mxGeometry relative="1" as="geometry"/>
                </mxCell>
                <mxCell id="99" value="objet B" style="swimlane;shadow=1;fontFamily=Helvetica;align=left;" vertex="1" parent="1">
                    <mxGeometry x="-1331" y="651" width="117" height="140" as="geometry"/>
                </mxCell>
                <mxCell id="104" style="edgeStyle=orthogonalEdgeStyle;rounded=0;orthogonalLoop=1;jettySize=auto;html=1;exitX=0.5;exitY=0;exitDx=0;exitDy=0;entryX=0.5;entryY=1;entryDx=0;entryDy=0;fontFamily=Helvetica;" edge="1" parent="1" source="101" target="26">
                    <mxGeometry relative="1" as="geometry"/>
                </mxCell>
                <mxCell id="101" value="objet C" style="swimlane;shadow=1;fontFamily=Helvetica;align=left;" vertex="1" parent="1">
                    <mxGeometry x="-1075" y="661" width="109" height="131" as="geometry"/>
                </mxCell>
                <mxCell id="105" style="edgeStyle=orthogonalEdgeStyle;rounded=0;orthogonalLoop=1;jettySize=auto;html=1;exitX=0.5;exitY=0;exitDx=0;exitDy=0;fontFamily=Helvetica;" edge="1" parent="1" source="102" target="29">
                    <mxGeometry relative="1" as="geometry"/>
                </mxCell>
                <mxCell id="102" value="objet D" style="swimlane;shadow=1;fontFamily=Helvetica;align=left;" vertex="1" parent="1">
                    <mxGeometry x="-893" y="635.5" width="119" height="139.5" as="geometry"/>
                </mxCell>
                <mxCell id="106" style="edgeStyle=orthogonalEdgeStyle;rounded=0;orthogonalLoop=1;jettySize=auto;html=1;entryX=0.75;entryY=1;entryDx=0;entryDy=0;fontFamily=Helvetica;" edge="1" parent="1" source="103" target="30">
                    <mxGeometry relative="1" as="geometry"/>
                </mxCell>
                <mxCell id="103" value="objet E" style="swimlane;shadow=1;fontFamily=Helvetica;align=left;startSize=23;" vertex="1" parent="1">
                    <mxGeometry x="-704.5" y="611" width="118.5" height="140" as="geometry"/>
                </mxCell>
                <mxCell id="107" value="objet F" style="swimlane;shadow=1;fontFamily=Helvetica;align=left;startSize=23;" vertex="1" parent="1">
                    <mxGeometry x="-666" y="310" width="120" height="141" as="geometry"/>
                </mxCell>
                <mxCell id="111" style="edgeStyle=orthogonalEdgeStyle;rounded=0;orthogonalLoop=1;jettySize=auto;html=1;entryX=0.5;entryY=1;entryDx=0;entryDy=0;fontFamily=Helvetica;" edge="1" parent="1" source="109" target="46">
                    <mxGeometry relative="1" as="geometry"/>
                </mxCell>
                <mxCell id="109" value="objet G" style="swimlane;shadow=1;fontFamily=Helvetica;align=left;" vertex="1" parent="1">
                    <mxGeometry x="-502" y="483" width="118" height="142" as="geometry"/>
                </mxCell>
                <mxCell id="113" style="edgeStyle=orthogonalEdgeStyle;rounded=0;orthogonalLoop=1;jettySize=auto;html=1;entryX=0.5;entryY=1;entryDx=0;entryDy=0;fontFamily=Helvetica;" edge="1" parent="1" source="112" target="47">
                    <mxGeometry relative="1" as="geometry"/>
                </mxCell>
                <mxCell id="112" value="objet H" style="swimlane;shadow=1;fontFamily=Helvetica;align=left;" vertex="1" parent="1">
                    <mxGeometry x="-312" y="620" width="117" height="125" as="geometry"/>
                </mxCell>
                <mxCell id="115" style="edgeStyle=orthogonalEdgeStyle;rounded=0;orthogonalLoop=1;jettySize=auto;html=1;entryX=0.5;entryY=1;entryDx=0;entryDy=0;fontFamily=Helvetica;" edge="1" parent="1" source="114" target="48">
                    <mxGeometry relative="1" as="geometry"/>
                </mxCell>
                <mxCell id="114" value="objet I" style="swimlane;shadow=1;fontFamily=Helvetica;align=left;" vertex="1" parent="1">
                    <mxGeometry x="-132.5" y="619" width="119.5" height="124" as="geometry"/>
                </mxCell>
                <mxCell id="120" value="" style="edgeStyle=orthogonalEdgeStyle;rounded=0;orthogonalLoop=1;jettySize=auto;html=1;fontFamily=Helvetica;entryX=0.5;entryY=1;entryDx=0;entryDy=0;" edge="1" parent="1" source="116" target="49">
                    <mxGeometry relative="1" as="geometry">
                        <mxPoint x="124" y="540" as="targetPoint"/>
                    </mxGeometry>
                </mxCell>
                <mxCell id="116" value="Objet K" style="swimlane;shadow=1;fontFamily=Helvetica;align=left;" vertex="1" parent="1">
                    <mxGeometry x="65" y="620" width="118" height="126" as="geometry"/>
                </mxCell>
                <mxCell id="118" style="edgeStyle=orthogonalEdgeStyle;rounded=0;orthogonalLoop=1;jettySize=auto;html=1;exitX=0.5;exitY=0;exitDx=0;exitDy=0;entryX=0.5;entryY=1;entryDx=0;entryDy=0;fontFamily=Helvetica;" edge="1" parent="1" source="117" target="50">
                    <mxGeometry relative="1" as="geometry"/>
                </mxCell>
                <mxCell id="117" value="Objet L" style="swimlane;shadow=1;fontFamily=Helvetica;align=left;" vertex="1" parent="1">
                    <mxGeometry x="297" y="469" width="118" height="124" as="geometry"/>
                </mxCell>
            </root>
        </mxGraphModel>
    </diagram>
</mxfile>